<svg fill="none" viewBox="0 0 1058 1058" xmlns="http://www.w3.org/2000/svg"><rect x="17.1" y="17.1" width="1023.9" height="1023.9" rx="256" fill="#c4bebb" stroke="#2d2d2d" stroke-width="34.1"/><circle cx="190.7" cy="217.8" stroke="#306230" stroke-width="8.4" r="37.3"><animate attributeName="fill" values="#9bbc0f;#548c2f;#9bbc0f" dur="2s" repeatCount="indefinite"/><animate attributeName="fill-opacity" values="1;.3;1" dur="2s" repeatCount="indefinite"/></circle><g transform="rotate(22 3553.5 -576.2)scale(35.99551)" stroke-linecap="round" stroke-miterlimit="10"><path d="m37.7 51.3 3 3m3-9 3 3m-7 1 4 4m-2-6 4 4" stroke="#272929"/><path stroke="#948a84" d="m38 51 3 3m3-9 3 3m-7 1 4 4m-2-6 4 4"/></g><g transform="translate(359.4 -20.8)scale(5.6882)" stroke="#2d2d2d" stroke-width="2.5"><rect transform="matrix(.92157 -.38821 .36855 .92961 0 0)" x="-59.7" y="74.4" width="106.7" height="44.7" rx="19.9" ry="22.4" fill="#9f9793"/><circle cx="5.3" cy="102.6" r="18.6" fill="#9a2257"/><circle cx="55.3" cy="80.8" r="18.6" fill="#9a2257"/></g></svg>